<?xml version="1.0" encoding="UTF-8" standalone="no"?>
<!-- Created with Inkscape (http://www.inkscape.org/) -->

<svg
   width="600"
   height="300"
   viewBox="0 0 158.74999 79.375002"
   version="1.1"
   id="svg5"
   inkscape:version="1.1.2 (0a00cf5339, 2022-02-04)"
   sodipodi:docname="dot-generation.svg"
   xmlns:inkscape="http://www.inkscape.org/namespaces/inkscape"
   xmlns:sodipodi="http://sodipodi.sourceforge.net/DTD/sodipodi-0.dtd"
   xmlns="http://www.w3.org/2000/svg"
   xmlns:svg="http://www.w3.org/2000/svg">
  <sodipodi:namedview
     id="namedview7"
     pagecolor="#ffffff"
     bordercolor="#666666"
     borderopacity="1.0"
     inkscape:pageshadow="2"
     inkscape:pageopacity="0.0"
     inkscape:pagecheckerboard="0"
     inkscape:document-units="mm"
     showgrid="false"
     units="px"
     width="300px"
     inkscape:zoom="1.4142136"
     inkscape:cx="303.34881"
     inkscape:cy="144.24978"
     inkscape:window-width="2560"
     inkscape:window-height="1403"
     inkscape:window-x="0"
     inkscape:window-y="0"
     inkscape:window-maximized="1"
     inkscape:current-layer="layer1">
    <inkscape:grid
       type="xygrid"
       id="grid1019"
       spacingx="2.6458333"
       spacingy="2.6458333" />
  </sodipodi:namedview>
  <defs
     id="defs2" />
  <g
     inkscape:label="Layer 1"
     inkscape:groupmode="layer"
     id="layer1">
    <rect
       style="fill:#f1f1f1;fill-opacity:1;fill-rule:evenodd;stroke:#cccccc;stroke-width:0.264583;stroke-linecap:round;stroke-miterlimit:4;stroke-dasharray:none"
       id="rect58085"
       width="47.625"
       height="18.520834"
       x="105.83333"
       y="26.458332" />
    <rect
       style="fill:#f4fff8;fill-opacity:1;fill-rule:evenodd;stroke:#cccccc;stroke-width:0.264583;stroke-linecap:round;stroke-miterlimit:4;stroke-dasharray:none"
       id="rect58085-1"
       width="10.583332"
       height="21.16667"
       x="84.666664"
       y="5.2916646" />
    <rect
       style="fill:#f4fff8;fill-opacity:1;fill-rule:evenodd;stroke:#cccccc;stroke-width:0.264583;stroke-linecap:round;stroke-miterlimit:4;stroke-dasharray:none"
       id="rect58085-1-0"
       width="10.583332"
       height="21.16667"
       x="142.875"
       y="5.2916627" />
    <rect
       style="fill:#f4fff8;fill-opacity:1;fill-rule:evenodd;stroke:#cccccc;stroke-width:0.198437;stroke-linecap:round;stroke-miterlimit:4;stroke-dasharray:none"
       id="rect58085-1-3"
       width="15.875"
       height="7.9375014"
       x="84.666664"
       y="58.208332" />
    <text
       xml:space="preserve"
       style="font-size:2.82222px;line-height:1.3;font-family:sans-serif;stroke-width:0.264583"
       x="34.864124"
       y="54.951778"
       id="text4245"><tspan
         sodipodi:role="line"
         id="tspan4243"
         style="font-style:normal;font-variant:normal;font-weight:bold;font-stretch:normal;font-size:2.82222px;font-family:'Ubuntu Mono';-inkscape-font-specification:'Ubuntu Mono Bold';stroke-width:0.264583"
         x="34.864124"
         y="54.951778">Owners</tspan><tspan
         sodipodi:role="line"
         style="font-style:normal;font-variant:normal;font-weight:normal;font-stretch:normal;font-size:2.82222px;font-family:'Ubuntu Mono';-inkscape-font-specification:'Ubuntu Mono Bold';stroke-width:0.264583"
         x="34.864124"
         y="58.755924"
         id="tspan12239">   with a mortgage</tspan><tspan
         sodipodi:role="line"
         style="font-style:normal;font-variant:normal;font-weight:normal;font-stretch:normal;font-size:2.82222px;font-family:'Ubuntu Mono';-inkscape-font-specification:'Ubuntu Mono Bold';stroke-width:0.264583"
         x="34.864124"
         y="62.56007"
         id="tspan12241">   without a mortgage</tspan><tspan
         sodipodi:role="line"
         style="font-style:normal;font-variant:normal;font-weight:bold;font-stretch:normal;font-size:2.82222px;font-family:'Ubuntu Mono';-inkscape-font-specification:'Ubuntu Mono Bold';stroke-width:0.264583"
         x="34.864124"
         y="66.364212"
         id="tspan12243">Renters</tspan><tspan
         sodipodi:role="line"
         style="font-style:normal;font-variant:normal;font-weight:normal;font-stretch:normal;font-size:2.82222px;font-family:'Ubuntu Mono';-inkscape-font-specification:'Ubuntu Mono Bold';stroke-width:0.264583"
         x="34.864124"
         y="70.168358"
         id="tspan12245">   in subsidized housing</tspan><tspan
         sodipodi:role="line"
         style="font-style:normal;font-variant:normal;font-weight:normal;font-stretch:normal;font-size:2.82222px;font-family:'Ubuntu Mono';-inkscape-font-specification:'Ubuntu Mono Bold';stroke-width:0.264583"
         x="34.864124"
         y="73.972504"
         id="tspan10889">   not in subsidized housing</tspan></text>
    <text
       xml:space="preserve"
       style="font-size:2.82222px;line-height:1.3;font-family:sans-serif;stroke-width:0.264583"
       x="28.365601"
       y="7.1923099"
       id="text4245-3"><tspan
         sodipodi:role="line"
         style="font-style:normal;font-variant:normal;font-weight:normal;font-stretch:normal;font-size:2.82222px;font-family:'Ubuntu Mono';-inkscape-font-specification:'Ubuntu Mono Bold';stroke-width:0.264583"
         x="28.365601"
         y="7.1923099"
         id="tspan10889-0">Dissemination Area</tspan></text>
    <text
       xml:space="preserve"
       style="font-size:2.82222px;line-height:1.3;font-family:sans-serif;stroke-width:0.264583"
       x="126.59169"
       y="36.8353"
       id="text4245-3-5"><tspan
         sodipodi:role="line"
         style="font-style:normal;font-variant:normal;font-weight:normal;font-stretch:normal;font-size:2.82222px;font-family:'Ubuntu Mono';-inkscape-font-specification:'Ubuntu Mono Bold';stroke-width:0.264583"
         x="126.59169"
         y="36.8353"
         id="tspan10889-0-5">Retail</tspan></text>
    <text
       xml:space="preserve"
       style="font-size:2.82222px;line-height:1.3;font-family:sans-serif;stroke-width:0.264583"
       x="87.06498"
       y="17.282272"
       id="text4245-3-5-9"><tspan
         sodipodi:role="line"
         style="font-style:normal;font-variant:normal;font-weight:normal;font-stretch:normal;font-size:2.82222px;font-family:'Ubuntu Mono';-inkscape-font-specification:'Ubuntu Mono Bold';stroke-width:0.264583"
         x="87.06498"
         y="17.282272"
         id="tspan10889-0-5-9">Park</tspan></text>
    <text
       xml:space="preserve"
       style="font-size:2.82222px;line-height:1.3;font-family:sans-serif;stroke-width:0.264583"
       x="144.92856"
       y="16.349287"
       id="text4245-3-5-9-4"><tspan
         sodipodi:role="line"
         style="font-style:normal;font-variant:normal;font-weight:normal;font-stretch:normal;font-size:2.82222px;font-family:'Ubuntu Mono';-inkscape-font-specification:'Ubuntu Mono Bold';stroke-width:0.264583"
         x="144.92856"
         y="16.349287"
         id="tspan10889-0-5-9-8">Park</tspan></text>
    <text
       xml:space="preserve"
       style="font-size:2.82222px;line-height:1.3;font-family:sans-serif;stroke-width:0.264583"
       x="89.873825"
       y="63.156471"
       id="text4245-3-5-9-6"><tspan
         sodipodi:role="line"
         style="font-style:normal;font-variant:normal;font-weight:normal;font-stretch:normal;font-size:2.82222px;font-family:'Ubuntu Mono';-inkscape-font-specification:'Ubuntu Mono Bold';stroke-width:0.264583"
         x="89.873825"
         y="63.156471"
         id="tspan10889-0-5-9-9">Park</tspan></text>
    <path
       style="fill:none;stroke:#000000;stroke-width:0.529167;stroke-linecap:butt;stroke-linejoin:miter;stroke-miterlimit:4;stroke-dasharray:none;stroke-opacity:1"
       d="M 5.2916666,5.2916666 V 37.041666 h 2.6458333 v 7.9375 H 5.2916666 v 26.458333 l 2.6458333,2.645833 H 21.166666 V 55.562499 h 5.291667 V 44.979166 H 74.083332 V 5.2916666 H 55.562499 V 7.9374999 H 26.458333 V 5.2916666 Z"
       id="path1056"
       sodipodi:nodetypes="cccccccccccccccccc" />
    <path
       style="fill:#ab1368;fill-opacity:1;fill-rule:evenodd;stroke:none;stroke-width:2;stroke-linecap:round;stroke-miterlimit:4;stroke-dasharray:none"
       id="path1178"
       sodipodi:type="arc"
       sodipodi:cx="21.166666"
       sodipodi:cy="23.8125"
       sodipodi:rx="1.3229166"
       sodipodi:ry="1.3229166"
       sodipodi:start="5.7614017"
       sodipodi:end="5.7561308"
       sodipodi:arc-type="slice"
       d="m 22.313544,23.153122 a 1.3229166,1.3229166 0 0 1 -0.48599,1.805386 1.3229166,1.3229166 0 0 1 -1.806024,-0.48361 1.3229166,1.3229166 0 0 1 0.48123,-1.806661 1.3229166,1.3229166 0 0 1 1.807293,0.478849 L 21.166666,23.8125 Z" />
    <path
       style="fill:#00a189;fill-opacity:1;fill-rule:evenodd;stroke:none;stroke-width:2;stroke-linecap:round;stroke-miterlimit:4;stroke-dasharray:none"
       id="path1178-4"
       sodipodi:type="arc"
       sodipodi:cx="51.773281"
       sodipodi:cy="19.186247"
       sodipodi:rx="1.3229166"
       sodipodi:ry="1.3229166"
       sodipodi:start="5.7614017"
       sodipodi:end="5.7561308"
       sodipodi:arc-type="slice"
       d="m 52.920159,18.526869 a 1.3229166,1.3229166 0 0 1 -0.48599,1.805386 1.3229166,1.3229166 0 0 1 -1.806024,-0.48361 1.3229166,1.3229166 0 0 1 0.48123,-1.806661 1.3229166,1.3229166 0 0 1 1.807293,0.478849 l -1.143387,0.665414 z" />
    <path
       style="fill:#6d247a;fill-opacity:1;fill-rule:evenodd;stroke:none;stroke-width:2;stroke-linecap:round;stroke-miterlimit:4;stroke-dasharray:none"
       id="path1178-8"
       sodipodi:type="arc"
       sodipodi:cx="44.979164"
       sodipodi:cy="31.75"
       sodipodi:rx="1.3229166"
       sodipodi:ry="1.3229166"
       sodipodi:start="5.7614017"
       sodipodi:end="5.7561308"
       sodipodi:arc-type="slice"
       d="m 46.126042,31.090622 a 1.3229166,1.3229166 0 0 1 -0.48599,1.805386 1.3229166,1.3229166 0 0 1 -1.806024,-0.48361 1.3229166,1.3229166 0 0 1 0.48123,-1.806661 1.3229166,1.3229166 0 0 1 1.807293,0.478849 L 44.979164,31.75 Z" />
    <path
       style="fill:#6d247a;fill-opacity:1;fill-rule:evenodd;stroke:none;stroke-width:2;stroke-linecap:round;stroke-miterlimit:4;stroke-dasharray:none"
       id="path1178-8-9"
       sodipodi:type="arc"
       sodipodi:cx="63.499996"
       sodipodi:cy="7.9375"
       sodipodi:rx="1.3229166"
       sodipodi:ry="1.3229166"
       sodipodi:start="5.7614017"
       sodipodi:end="5.7561308"
       sodipodi:arc-type="slice"
       d="M 64.646874,7.2781224 A 1.3229166,1.3229166 0 0 1 64.160885,9.0835083 1.3229166,1.3229166 0 0 1 62.35486,8.5998979 1.3229166,1.3229166 0 0 1 62.83609,6.7932374 1.3229166,1.3229166 0 0 1 64.643383,7.2720865 L 63.499996,7.9375 Z" />
    <path
       style="fill:#6d247a;fill-opacity:1;fill-rule:evenodd;stroke:none;stroke-width:2;stroke-linecap:round;stroke-miterlimit:4;stroke-dasharray:none"
       id="path1178-8-5"
       sodipodi:type="arc"
       sodipodi:cx="58.208328"
       sodipodi:cy="23.8125"
       sodipodi:rx="1.3229166"
       sodipodi:ry="1.3229166"
       sodipodi:start="5.7614017"
       sodipodi:end="5.7561308"
       sodipodi:arc-type="slice"
       d="m 59.355206,23.153122 a 1.3229166,1.3229166 0 0 1 -0.485989,1.805386 1.3229166,1.3229166 0 0 1 -1.806025,-0.48361 1.3229166,1.3229166 0 0 1 0.48123,-1.806661 1.3229166,1.3229166 0 0 1 1.807293,0.478849 L 58.208328,23.8125 Z" />
    <path
       style="fill:#ab1368;fill-opacity:1;fill-rule:evenodd;stroke:none;stroke-width:2;stroke-linecap:round;stroke-miterlimit:4;stroke-dasharray:none"
       id="path1178-5"
       sodipodi:type="arc"
       sodipodi:cx="23.8125"
       sodipodi:cy="37.041668"
       sodipodi:rx="1.3229166"
       sodipodi:ry="1.3229166"
       sodipodi:start="5.7614017"
       sodipodi:end="5.7561308"
       sodipodi:arc-type="slice"
       d="m 24.959378,36.38229 a 1.3229166,1.3229166 0 0 1 -0.48599,1.805386 1.3229166,1.3229166 0 0 1 -1.806024,-0.48361 1.3229166,1.3229166 0 0 1 0.48123,-1.806661 1.3229166,1.3229166 0 0 1 1.807293,0.478849 L 23.8125,37.041668 Z" />
    <path
       style="fill:#6d247a;fill-opacity:1;fill-rule:evenodd;stroke:none;stroke-width:2;stroke-linecap:round;stroke-miterlimit:4;stroke-dasharray:none"
       id="path1178-5-0"
       sodipodi:type="arc"
       sodipodi:cx="12.534941"
       sodipodi:cy="55.191158"
       sodipodi:rx="1.3229166"
       sodipodi:ry="1.3229166"
       sodipodi:start="5.7614017"
       sodipodi:end="5.7561308"
       sodipodi:arc-type="slice"
       d="m 13.681819,54.531781 a 1.3229166,1.3229166 0 0 1 -0.48599,1.805386 1.3229166,1.3229166 0 0 1 -1.806025,-0.483611 1.3229166,1.3229166 0 0 1 0.48123,-1.80666 1.3229166,1.3229166 0 0 1 1.807293,0.478849 l -1.143386,0.665413 z" />
    <path
       style="fill:#6d247a;fill-opacity:1;fill-rule:evenodd;stroke:none;stroke-width:2;stroke-linecap:round;stroke-miterlimit:4;stroke-dasharray:none"
       id="path1178-5-0-3"
       sodipodi:type="arc"
       sodipodi:cx="90.472404"
       sodipodi:cy="70.896378"
       sodipodi:rx="1.3229166"
       sodipodi:ry="1.3229166"
       sodipodi:start="5.7614017"
       sodipodi:end="5.7561308"
       sodipodi:arc-type="slice"
       d="m 91.619283,70.237 a 1.3229166,1.3229166 0 0 1 -0.48599,1.805386 1.3229166,1.3229166 0 0 1 -1.806025,-0.483611 1.3229166,1.3229166 0 0 1 0.48123,-1.80666 1.3229166,1.3229166 0 0 1 1.807293,0.478849 l -1.143387,0.665414 z" />
    <path
       style="fill:#ab1368;fill-opacity:1;fill-rule:evenodd;stroke:none;stroke-width:2;stroke-linecap:round;stroke-miterlimit:4;stroke-dasharray:none"
       id="path1178-5-4"
       sodipodi:type="arc"
       sodipodi:cx="13.470384"
       sodipodi:cy="34.98558"
       sodipodi:rx="1.3229166"
       sodipodi:ry="1.3229166"
       sodipodi:start="5.7614017"
       sodipodi:end="5.7561308"
       sodipodi:arc-type="slice"
       d="m 14.617262,34.326203 a 1.3229166,1.3229166 0 0 1 -0.48599,1.805386 1.3229166,1.3229166 0 0 1 -1.806025,-0.483611 1.3229166,1.3229166 0 0 1 0.48123,-1.80666 1.3229166,1.3229166 0 0 1 1.807293,0.478849 l -1.143386,0.665413 z" />
    <path
       style="fill:#00a189;fill-opacity:1;fill-rule:evenodd;stroke:none;stroke-width:2;stroke-linecap:round;stroke-miterlimit:4;stroke-dasharray:none"
       id="path1178-5-1"
       sodipodi:type="arc"
       sodipodi:cx="13.229166"
       sodipodi:cy="10.583333"
       sodipodi:rx="1.3229166"
       sodipodi:ry="1.3229166"
       sodipodi:start="5.7614017"
       sodipodi:end="5.7561308"
       sodipodi:arc-type="slice"
       d="m 14.376044,9.9239554 a 1.3229166,1.3229166 0 0 1 -0.48599,1.8053856 1.3229166,1.3229166 0 0 1 -1.806024,-0.48361 1.3229166,1.3229166 0 0 1 0.48123,-1.8066606 1.3229166,1.3229166 0 0 1 1.807293,0.4788491 l -1.143387,0.6654135 z" />
    <path
       style="fill:#6d247a;fill-opacity:1;fill-rule:evenodd;stroke:none;stroke-width:2;stroke-linecap:round;stroke-miterlimit:4;stroke-dasharray:none"
       id="path1178-5-7"
       sodipodi:type="arc"
       sodipodi:cx="35.82748"
       sodipodi:cy="28.343933"
       sodipodi:rx="1.3229166"
       sodipodi:ry="1.3229166"
       sodipodi:start="5.7614017"
       sodipodi:end="5.7561308"
       sodipodi:arc-type="slice"
       d="m 36.974358,27.684555 a 1.3229166,1.3229166 0 0 1 -0.485989,1.805386 1.3229166,1.3229166 0 0 1 -1.806025,-0.48361 1.3229166,1.3229166 0 0 1 0.48123,-1.80666 1.3229166,1.3229166 0 0 1 1.807293,0.478849 l -1.143387,0.665413 z" />
    <path
       style="fill:#6d247a;fill-opacity:1;fill-rule:evenodd;stroke:none;stroke-width:2;stroke-linecap:round;stroke-miterlimit:4;stroke-dasharray:none"
       id="path1178-5-9"
       sodipodi:type="arc"
       sodipodi:cx="60.710274"
       sodipodi:cy="39.28862"
       sodipodi:rx="1.3229166"
       sodipodi:ry="1.3229166"
       sodipodi:start="5.7614017"
       sodipodi:end="5.7561308"
       sodipodi:arc-type="slice"
       d="m 61.857152,38.629242 a 1.3229166,1.3229166 0 0 1 -0.48599,1.805386 1.3229166,1.3229166 0 0 1 -1.806025,-0.48361 1.3229166,1.3229166 0 0 1 0.48123,-1.806661 1.3229166,1.3229166 0 0 1 1.807293,0.478849 l -1.143386,0.665414 z" />
    <path
       style="fill:#00a189;fill-opacity:1;fill-rule:evenodd;stroke:none;stroke-width:2;stroke-linecap:round;stroke-miterlimit:4;stroke-dasharray:none"
       id="path1178-82"
       sodipodi:type="arc"
       sodipodi:cx="37.041664"
       sodipodi:cy="21.166666"
       sodipodi:rx="1.3229166"
       sodipodi:ry="1.3229166"
       sodipodi:start="5.7614017"
       sodipodi:end="5.7561308"
       sodipodi:arc-type="slice"
       d="m 38.188542,20.507288 a 1.3229166,1.3229166 0 0 1 -0.48599,1.805386 1.3229166,1.3229166 0 0 1 -1.806024,-0.48361 1.3229166,1.3229166 0 0 1 0.48123,-1.806661 1.3229166,1.3229166 0 0 1 1.807293,0.47885 l -1.143387,0.665413 z" />
    <path
       style="fill:#00a189;fill-opacity:1;fill-rule:evenodd;stroke:none;stroke-width:2;stroke-linecap:round;stroke-miterlimit:4;stroke-dasharray:none"
       id="path1178-6"
       sodipodi:type="arc"
       sodipodi:cx="63.5"
       sodipodi:cy="29.104166"
       sodipodi:rx="1.3229166"
       sodipodi:ry="1.3229166"
       sodipodi:start="5.7614017"
       sodipodi:end="5.7561308"
       sodipodi:arc-type="slice"
       d="m 64.646878,28.444788 a 1.3229166,1.3229166 0 0 1 -0.48599,1.805386 1.3229166,1.3229166 0 0 1 -1.806024,-0.48361 1.3229166,1.3229166 0 0 1 0.48123,-1.806661 1.3229166,1.3229166 0 0 1 1.807293,0.47885 L 63.5,29.104166 Z" />
    <path
       style="fill:#6d247a;fill-opacity:1;fill-rule:evenodd;stroke:none;stroke-width:2;stroke-linecap:round;stroke-miterlimit:4;stroke-dasharray:none"
       id="path1178-66-2"
       sodipodi:type="arc"
       sodipodi:cx="36.337955"
       sodipodi:cy="58.108204"
       sodipodi:rx="1.3229166"
       sodipodi:ry="1.3229166"
       sodipodi:start="5.7614017"
       sodipodi:end="5.7561308"
       sodipodi:arc-type="slice"
       d="m 37.484834,57.448826 a 1.3229166,1.3229166 0 0 1 -0.48599,1.805386 1.3229166,1.3229166 0 0 1 -1.806025,-0.48361 1.3229166,1.3229166 0 0 1 0.48123,-1.806661 1.3229166,1.3229166 0 0 1 1.807293,0.478849 l -1.143387,0.665414 z" />
    <path
       style="fill:#ab1368;fill-opacity:1;fill-rule:evenodd;stroke:none;stroke-width:2;stroke-linecap:round;stroke-miterlimit:4;stroke-dasharray:none"
       id="path1178-66-2-9"
       sodipodi:type="arc"
       sodipodi:cx="36.292187"
       sodipodi:cy="61.857285"
       sodipodi:rx="1.3229166"
       sodipodi:ry="1.3229166"
       sodipodi:start="5.7614017"
       sodipodi:end="5.7561308"
       sodipodi:arc-type="slice"
       d="m 37.439065,61.197907 a 1.3229166,1.3229166 0 0 1 -0.48599,1.805386 1.3229166,1.3229166 0 0 1 -1.806025,-0.483611 1.3229166,1.3229166 0 0 1 0.48123,-1.80666 1.3229166,1.3229166 0 0 1 1.807293,0.478849 l -1.143386,0.665414 z" />
    <path
       style="fill:#6fc7ea;fill-opacity:1;fill-rule:evenodd;stroke:none;stroke-width:2;stroke-linecap:round;stroke-miterlimit:4;stroke-dasharray:none"
       id="path1178-66-2-0"
       sodipodi:type="arc"
       sodipodi:cx="36.25388"
       sodipodi:cy="69.44075"
       sodipodi:rx="1.3229166"
       sodipodi:ry="1.3229166"
       sodipodi:start="5.7614017"
       sodipodi:end="5.7561308"
       sodipodi:arc-type="slice"
       d="m 37.400758,68.781372 a 1.3229166,1.3229166 0 0 1 -0.48599,1.805386 1.3229166,1.3229166 0 0 1 -1.806025,-0.48361 1.3229166,1.3229166 0 0 1 0.48123,-1.80666 1.3229166,1.3229166 0 0 1 1.807293,0.478849 L 36.25388,69.44075 Z" />
    <path
       style="fill:#6fc7ea;fill-opacity:1;fill-rule:evenodd;stroke:none;stroke-width:2;stroke-linecap:round;stroke-miterlimit:4;stroke-dasharray:none"
       id="path1178-66-2-0-3"
       sodipodi:type="arc"
       sodipodi:cx="37.979"
       sodipodi:cy="38.353176"
       sodipodi:rx="1.3229166"
       sodipodi:ry="1.3229166"
       sodipodi:start="5.7614017"
       sodipodi:end="5.7561308"
       sodipodi:arc-type="slice"
       d="m 39.125878,37.693798 a 1.3229166,1.3229166 0 0 1 -0.48599,1.805386 1.3229166,1.3229166 0 0 1 -1.806024,-0.48361 1.3229166,1.3229166 0 0 1 0.48123,-1.80666 1.3229166,1.3229166 0 0 1 1.807293,0.478849 L 37.979,38.353176 Z" />
    <path
       style="fill:#6fc7ea;fill-opacity:1;fill-rule:evenodd;stroke:none;stroke-width:2;stroke-linecap:round;stroke-miterlimit:4;stroke-dasharray:none"
       id="path1178-66-2-0-6"
       sodipodi:type="arc"
       sodipodi:cx="22.918362"
       sodipodi:cy="15.434815"
       sodipodi:rx="1.3229166"
       sodipodi:ry="1.3229166"
       sodipodi:start="5.7614017"
       sodipodi:end="5.7561308"
       sodipodi:arc-type="slice"
       d="m 24.06524,14.775438 a 1.3229166,1.3229166 0 0 1 -0.48599,1.805386 1.3229166,1.3229166 0 0 1 -1.806025,-0.483611 1.3229166,1.3229166 0 0 1 0.48123,-1.80666 1.3229166,1.3229166 0 0 1 1.807293,0.478849 l -1.143386,0.665413 z" />
    <path
       style="fill:#6fc7ea;fill-opacity:1;fill-rule:evenodd;stroke:none;stroke-width:2;stroke-linecap:round;stroke-miterlimit:4;stroke-dasharray:none"
       id="path1178-66-2-0-2"
       sodipodi:type="arc"
       sodipodi:cx="68.380905"
       sodipodi:cy="16.65089"
       sodipodi:rx="1.3229166"
       sodipodi:ry="1.3229166"
       sodipodi:start="5.7614017"
       sodipodi:end="5.7561308"
       sodipodi:arc-type="slice"
       d="m 69.527783,15.991513 a 1.3229166,1.3229166 0 0 1 -0.48599,1.805386 1.3229166,1.3229166 0 0 1 -1.806024,-0.483611 1.3229166,1.3229166 0 0 1 0.48123,-1.80666 1.3229166,1.3229166 0 0 1 1.807293,0.478849 l -1.143387,0.665413 z" />
    <path
       style="fill:#00a189;fill-opacity:1;fill-rule:evenodd;stroke:none;stroke-width:2;stroke-linecap:round;stroke-miterlimit:4;stroke-dasharray:none"
       id="path1178-66-2-9-5"
       sodipodi:type="arc"
       sodipodi:cx="36.208111"
       sodipodi:cy="73.189827"
       sodipodi:rx="1.3229166"
       sodipodi:ry="1.3229166"
       sodipodi:start="5.7614017"
       sodipodi:end="5.7561308"
       sodipodi:arc-type="slice"
       d="m 37.354989,72.530449 a 1.3229166,1.3229166 0 0 1 -0.48599,1.805386 1.3229166,1.3229166 0 0 1 -1.806025,-0.48361 1.3229166,1.3229166 0 0 1 0.481231,-1.806661 1.3229166,1.3229166 0 0 1 1.807293,0.478849 l -1.143387,0.665414 z" />
    <text
       xml:space="preserve"
       style="font-size:2.82222px;line-height:1.3;font-family:sans-serif;stroke-width:0.264583"
       x="114.23911"
       y="54.951778"
       id="text4245-2"><tspan
         sodipodi:role="line"
         id="tspan4243-7"
         style="font-style:normal;font-variant:normal;font-weight:bold;font-stretch:normal;font-size:2.82222px;font-family:'Ubuntu Mono';-inkscape-font-specification:'Ubuntu Mono Bold';stroke-width:0.264583"
         x="114.23911"
         y="54.951778">Owners</tspan><tspan
         sodipodi:role="line"
         style="font-style:normal;font-variant:normal;font-weight:normal;font-stretch:normal;font-size:2.82222px;font-family:'Ubuntu Mono';-inkscape-font-specification:'Ubuntu Mono Bold';stroke-width:0.264583"
         x="114.23911"
         y="58.755924"
         id="tspan12239-9">   with a mortgage</tspan><tspan
         sodipodi:role="line"
         style="font-style:normal;font-variant:normal;font-weight:normal;font-stretch:normal;font-size:2.82222px;font-family:'Ubuntu Mono';-inkscape-font-specification:'Ubuntu Mono Bold';stroke-width:0.264583"
         x="114.23911"
         y="62.56007"
         id="tspan12241-1">   without a mortgage</tspan><tspan
         sodipodi:role="line"
         style="font-style:normal;font-variant:normal;font-weight:bold;font-stretch:normal;font-size:2.82222px;font-family:'Ubuntu Mono';-inkscape-font-specification:'Ubuntu Mono Bold';stroke-width:0.264583"
         x="114.23911"
         y="66.364212"
         id="tspan12243-9">Renters</tspan><tspan
         sodipodi:role="line"
         style="font-style:normal;font-variant:normal;font-weight:normal;font-stretch:normal;font-size:2.82222px;font-family:'Ubuntu Mono';-inkscape-font-specification:'Ubuntu Mono Bold';stroke-width:0.264583"
         x="114.23911"
         y="70.168358"
         id="tspan12245-6">   in subsidized housing</tspan><tspan
         sodipodi:role="line"
         style="font-style:normal;font-variant:normal;font-weight:normal;font-stretch:normal;font-size:2.82222px;font-family:'Ubuntu Mono';-inkscape-font-specification:'Ubuntu Mono Bold';stroke-width:0.264583"
         x="114.23911"
         y="73.972504"
         id="tspan10889-3">   not in subsidized housing</tspan></text>
    <text
       xml:space="preserve"
       style="font-size:2.82222px;line-height:1.3;font-family:sans-serif;stroke-width:0.264583"
       x="107.74059"
       y="7.1923103"
       id="text4245-3-6"><tspan
         sodipodi:role="line"
         style="font-style:normal;font-variant:normal;font-weight:normal;font-stretch:normal;font-size:2.82222px;font-family:'Ubuntu Mono';-inkscape-font-specification:'Ubuntu Mono Bold';stroke-width:0.264583"
         x="107.74059"
         y="7.1923103"
         id="tspan10889-0-8">Dissemination Area</tspan></text>
    <path
       style="fill:none;stroke:#000000;stroke-width:0.529167;stroke-linecap:butt;stroke-linejoin:miter;stroke-miterlimit:4;stroke-dasharray:none;stroke-opacity:1"
       d="M 84.666669,5.2916671 V 37.041666 h 2.645832 v 7.9375 h -2.645832 v 26.458333 l 2.645832,2.645833 H 100.54166 V 55.562499 h 5.29167 V 44.979166 h 47.625 V 5.2916671 H 134.9375 V 7.9375 H 105.83333 V 5.2916671 Z"
       id="path1056-4"
       sodipodi:nodetypes="cccccccccccccccccc" />
    <path
       style="fill:#6d247a;fill-opacity:1;fill-rule:evenodd;stroke:none;stroke-width:2;stroke-linecap:round;stroke-miterlimit:4;stroke-dasharray:none"
       id="path1178-66-2-7"
       sodipodi:type="arc"
       sodipodi:cx="115.71295"
       sodipodi:cy="58.108204"
       sodipodi:rx="1.3229166"
       sodipodi:ry="1.3229166"
       sodipodi:start="5.7614017"
       sodipodi:end="5.7561308"
       sodipodi:arc-type="slice"
       d="m 116.85983,57.448826 a 1.3229166,1.3229166 0 0 1 -0.48599,1.805386 1.3229166,1.3229166 0 0 1 -1.80602,-0.48361 1.3229166,1.3229166 0 0 1 0.48123,-1.806661 1.3229166,1.3229166 0 0 1 1.80729,0.478849 l -1.14339,0.665414 z" />
    <path
       style="fill:#ab1368;fill-opacity:1;fill-rule:evenodd;stroke:none;stroke-width:2;stroke-linecap:round;stroke-miterlimit:4;stroke-dasharray:none"
       id="path1178-66-2-9-3"
       sodipodi:type="arc"
       sodipodi:cx="115.66719"
       sodipodi:cy="61.857285"
       sodipodi:rx="1.3229166"
       sodipodi:ry="1.3229166"
       sodipodi:start="5.7614017"
       sodipodi:end="5.7561308"
       sodipodi:arc-type="slice"
       d="m 116.81407,61.197907 a 1.3229166,1.3229166 0 0 1 -0.48599,1.805386 1.3229166,1.3229166 0 0 1 -1.80603,-0.483611 1.3229166,1.3229166 0 0 1 0.48123,-1.80666 1.3229166,1.3229166 0 0 1 1.8073,0.478849 l -1.14339,0.665414 z" />
    <path
       style="fill:#6fc7ea;fill-opacity:1;fill-rule:evenodd;stroke:none;stroke-width:2;stroke-linecap:round;stroke-miterlimit:4;stroke-dasharray:none"
       id="path1178-66-2-0-4"
       sodipodi:type="arc"
       sodipodi:cx="115.62888"
       sodipodi:cy="69.44075"
       sodipodi:rx="1.3229166"
       sodipodi:ry="1.3229166"
       sodipodi:start="5.7614017"
       sodipodi:end="5.7561308"
       sodipodi:arc-type="slice"
       d="m 116.77576,68.781372 a 1.3229166,1.3229166 0 0 1 -0.48599,1.805386 1.3229166,1.3229166 0 0 1 -1.80602,-0.48361 1.3229166,1.3229166 0 0 1 0.48123,-1.80666 1.3229166,1.3229166 0 0 1 1.80729,0.478849 l -1.14339,0.665413 z" />
    <path
       style="fill:#00a189;fill-opacity:1;fill-rule:evenodd;stroke:none;stroke-width:2;stroke-linecap:round;stroke-miterlimit:4;stroke-dasharray:none"
       id="path1178-66-2-9-5-7"
       sodipodi:type="arc"
       sodipodi:cx="115.58311"
       sodipodi:cy="73.189827"
       sodipodi:rx="1.3229166"
       sodipodi:ry="1.3229166"
       sodipodi:start="5.7614017"
       sodipodi:end="5.7561308"
       sodipodi:arc-type="slice"
       d="m 116.72999,72.530449 a 1.3229166,1.3229166 0 0 1 -0.48599,1.805386 1.3229166,1.3229166 0 0 1 -1.80603,-0.48361 1.3229166,1.3229166 0 0 1 0.48123,-1.806661 1.3229166,1.3229166 0 0 1 1.80729,0.478849 l -1.14338,0.665414 z" />
    <path
       style="fill:#6d247a;fill-opacity:1;fill-rule:evenodd;stroke:none;stroke-width:2;stroke-linecap:round;stroke-miterlimit:4;stroke-dasharray:none"
       id="path1178-8-6"
       sodipodi:type="arc"
       sodipodi:cx="23.8125"
       sodipodi:cy="26.458332"
       sodipodi:rx="1.3229166"
       sodipodi:ry="1.3229166"
       sodipodi:start="5.7614017"
       sodipodi:end="5.7561308"
       sodipodi:arc-type="slice"
       d="m 24.959378,25.798954 a 1.3229166,1.3229166 0 0 1 -0.48599,1.805386 1.3229166,1.3229166 0 0 1 -1.806024,-0.48361 1.3229166,1.3229166 0 0 1 0.48123,-1.806661 1.3229166,1.3229166 0 0 1 1.807293,0.47885 L 23.8125,26.458332 Z" />
    <path
       style="fill:#6d247a;fill-opacity:1;fill-rule:evenodd;stroke:none;stroke-width:2;stroke-linecap:round;stroke-miterlimit:4;stroke-dasharray:none"
       id="path1178-8-8"
       sodipodi:type="arc"
       sodipodi:cx="13.229164"
       sodipodi:cy="18.520834"
       sodipodi:rx="1.3229166"
       sodipodi:ry="1.3229166"
       sodipodi:start="5.7614017"
       sodipodi:end="5.7561308"
       sodipodi:arc-type="slice"
       d="m 14.376042,17.861456 a 1.3229166,1.3229166 0 0 1 -0.48599,1.805386 1.3229166,1.3229166 0 0 1 -1.806024,-0.48361 1.3229166,1.3229166 0 0 1 0.48123,-1.806661 1.3229166,1.3229166 0 0 1 1.807293,0.478849 l -1.143387,0.665414 z" />
    <path
       style="fill:#ab1368;fill-opacity:1;fill-rule:evenodd;stroke:none;stroke-width:2;stroke-linecap:round;stroke-miterlimit:4;stroke-dasharray:none"
       id="path1178-1"
       sodipodi:type="arc"
       sodipodi:cx="115.35164"
       sodipodi:cy="18.998928"
       sodipodi:rx="1.3229166"
       sodipodi:ry="1.3229166"
       sodipodi:start="5.7614017"
       sodipodi:end="5.7561308"
       sodipodi:arc-type="slice"
       d="m 116.49852,18.33955 a 1.3229166,1.3229166 0 0 1 -0.48599,1.805386 1.3229166,1.3229166 0 0 1 -1.80603,-0.48361 1.3229166,1.3229166 0 0 1 0.48123,-1.806661 1.3229166,1.3229166 0 0 1 1.8073,0.47885 l -1.14339,0.665413 z" />
    <path
       style="fill:#00a189;fill-opacity:1;fill-rule:evenodd;stroke:none;stroke-width:2;stroke-linecap:round;stroke-miterlimit:4;stroke-dasharray:none"
       id="path1178-4-6"
       sodipodi:type="arc"
       sodipodi:cx="119.59628"
       sodipodi:cy="22.271324"
       sodipodi:rx="1.3229166"
       sodipodi:ry="1.3229166"
       sodipodi:start="5.7614017"
       sodipodi:end="5.7561308"
       sodipodi:arc-type="slice"
       d="m 120.74316,21.611947 a 1.3229166,1.3229166 0 0 1 -0.48599,1.805385 1.3229166,1.3229166 0 0 1 -1.80602,-0.48361 1.3229166,1.3229166 0 0 1 0.48123,-1.80666 1.3229166,1.3229166 0 0 1 1.80729,0.478849 l -1.14339,0.665413 z" />
    <path
       style="fill:#6d247a;fill-opacity:1;fill-rule:evenodd;stroke:none;stroke-width:2;stroke-linecap:round;stroke-miterlimit:4;stroke-dasharray:none"
       id="path1178-8-2"
       sodipodi:type="arc"
       sodipodi:cx="110.66234"
       sodipodi:cy="13.81172"
       sodipodi:rx="1.3229166"
       sodipodi:ry="1.3229166"
       sodipodi:start="5.7614017"
       sodipodi:end="5.7561308"
       sodipodi:arc-type="slice"
       d="m 111.80922,13.152342 a 1.3229166,1.3229166 0 0 1 -0.48599,1.805386 1.3229166,1.3229166 0 0 1 -1.80603,-0.48361 1.3229166,1.3229166 0 0 1 0.48123,-1.806661 1.3229166,1.3229166 0 0 1 1.8073,0.478849 l -1.14339,0.665414 z" />
    <path
       style="fill:#6d247a;fill-opacity:1;fill-rule:evenodd;stroke:none;stroke-width:2;stroke-linecap:round;stroke-miterlimit:4;stroke-dasharray:none"
       id="path1178-8-9-1"
       sodipodi:type="arc"
       sodipodi:cx="126.91765"
       sodipodi:cy="14.845105"
       sodipodi:rx="1.3229166"
       sodipodi:ry="1.3229166"
       sodipodi:start="5.7614017"
       sodipodi:end="5.7561308"
       sodipodi:arc-type="slice"
       d="m 128.06453,14.185728 a 1.3229166,1.3229166 0 0 1 -0.48599,1.805385 1.3229166,1.3229166 0 0 1 -1.80603,-0.48361 1.3229166,1.3229166 0 0 1 0.48123,-1.80666 1.3229166,1.3229166 0 0 1 1.8073,0.478849 l -1.14339,0.665413 z" />
    <path
       style="fill:#6d247a;fill-opacity:1;fill-rule:evenodd;stroke:none;stroke-width:2;stroke-linecap:round;stroke-miterlimit:4;stroke-dasharray:none"
       id="path1178-8-5-0"
       sodipodi:type="arc"
       sodipodi:cx="136.48273"
       sodipodi:cy="20.242044"
       sodipodi:rx="1.3229166"
       sodipodi:ry="1.3229166"
       sodipodi:start="5.7614017"
       sodipodi:end="5.7561308"
       sodipodi:arc-type="slice"
       d="m 137.62961,19.582667 a 1.3229166,1.3229166 0 0 1 -0.48599,1.805386 1.3229166,1.3229166 0 0 1 -1.80603,-0.483611 1.3229166,1.3229166 0 0 1 0.48123,-1.80666 1.3229166,1.3229166 0 0 1 1.80729,0.478849 l -1.14338,0.665413 z" />
    <path
       style="fill:#ab1368;fill-opacity:1;fill-rule:evenodd;stroke:none;stroke-width:2;stroke-linecap:round;stroke-miterlimit:4;stroke-dasharray:none"
       id="path1178-5-5"
       sodipodi:type="arc"
       sodipodi:cx="98.926109"
       sodipodi:cy="7.9650331"
       sodipodi:rx="1.3229166"
       sodipodi:ry="1.3229166"
       sodipodi:start="5.7614017"
       sodipodi:end="5.7561308"
       sodipodi:arc-type="slice"
       d="m 100.07299,7.3056554 a 1.3229166,1.3229166 0 0 1 -0.485992,1.805386 1.3229166,1.3229166 0 0 1 -1.806025,-0.4836105 1.3229166,1.3229166 0 0 1 0.48123,-1.8066604 1.3229166,1.3229166 0 0 1 1.807297,0.478849 l -1.143391,0.6654136 z" />
    <path
       style="fill:#ab1368;fill-opacity:1;fill-rule:evenodd;stroke:none;stroke-width:2;stroke-linecap:round;stroke-miterlimit:4;stroke-dasharray:none"
       id="path1178-5-4-3"
       sodipodi:type="arc"
       sodipodi:cx="94.408585"
       sodipodi:cy="41.694771"
       sodipodi:rx="1.3229166"
       sodipodi:ry="1.3229166"
       sodipodi:start="5.7614017"
       sodipodi:end="5.7561308"
       sodipodi:arc-type="slice"
       d="m 95.555463,41.035393 a 1.3229166,1.3229166 0 0 1 -0.48599,1.805386 1.3229166,1.3229166 0 0 1 -1.806025,-0.48361 1.3229166,1.3229166 0 0 1 0.48123,-1.806661 1.3229166,1.3229166 0 0 1 1.807293,0.478849 l -1.143386,0.665414 z" />
    <path
       style="fill:#00a189;fill-opacity:1;fill-rule:evenodd;stroke:none;stroke-width:2;stroke-linecap:round;stroke-miterlimit:4;stroke-dasharray:none"
       id="path1178-5-1-2"
       sodipodi:type="arc"
       sodipodi:cx="91.822182"
       sodipodi:cy="52.134865"
       sodipodi:rx="1.3229166"
       sodipodi:ry="1.3229166"
       sodipodi:start="5.7614017"
       sodipodi:end="5.7561308"
       sodipodi:arc-type="slice"
       d="m 92.96906,51.475487 a 1.3229166,1.3229166 0 0 1 -0.48599,1.805386 1.3229166,1.3229166 0 0 1 -1.806025,-0.48361 1.3229166,1.3229166 0 0 1 0.48123,-1.806661 1.3229166,1.3229166 0 0 1 1.807293,0.478849 l -1.143386,0.665414 z" />
    <path
       style="fill:#6d247a;fill-opacity:1;fill-rule:evenodd;stroke:none;stroke-width:2;stroke-linecap:round;stroke-miterlimit:4;stroke-dasharray:none"
       id="path1178-5-7-1"
       sodipodi:type="arc"
       sodipodi:cx="89.611885"
       sodipodi:cy="29.833277"
       sodipodi:rx="1.3229166"
       sodipodi:ry="1.3229166"
       sodipodi:start="5.7614017"
       sodipodi:end="5.7561308"
       sodipodi:arc-type="slice"
       d="m 90.758763,29.173899 a 1.3229166,1.3229166 0 0 1 -0.48599,1.805386 1.3229166,1.3229166 0 0 1 -1.806024,-0.48361 1.3229166,1.3229166 0 0 1 0.48123,-1.806661 1.3229166,1.3229166 0 0 1 1.807293,0.478849 l -1.143387,0.665414 z" />
    <path
       style="fill:#6d247a;fill-opacity:1;fill-rule:evenodd;stroke:none;stroke-width:2;stroke-linecap:round;stroke-miterlimit:4;stroke-dasharray:none"
       id="path1178-5-9-9"
       sodipodi:type="arc"
       sodipodi:cx="131.92717"
       sodipodi:cy="12.830862"
       sodipodi:rx="1.3229166"
       sodipodi:ry="1.3229166"
       sodipodi:start="5.7614017"
       sodipodi:end="5.7561308"
       sodipodi:arc-type="slice"
       d="m 133.07405,12.171484 a 1.3229166,1.3229166 0 0 1 -0.48599,1.805386 1.3229166,1.3229166 0 0 1 -1.80603,-0.48361 1.3229166,1.3229166 0 0 1 0.48123,-1.806661 1.3229166,1.3229166 0 0 1 1.8073,0.47885 l -1.14339,0.665413 z" />
    <path
       style="fill:#00a189;fill-opacity:1;fill-rule:evenodd;stroke:none;stroke-width:2;stroke-linecap:round;stroke-miterlimit:4;stroke-dasharray:none"
       id="path1178-82-7"
       sodipodi:type="arc"
       sodipodi:cx="123.71642"
       sodipodi:cy="19.884027"
       sodipodi:rx="1.3229166"
       sodipodi:ry="1.3229166"
       sodipodi:start="5.7614017"
       sodipodi:end="5.7561308"
       sodipodi:arc-type="slice"
       d="m 124.8633,19.22465 a 1.3229166,1.3229166 0 0 1 -0.48599,1.805386 1.3229166,1.3229166 0 0 1 -1.80602,-0.483611 1.3229166,1.3229166 0 0 1 0.48123,-1.80666 1.3229166,1.3229166 0 0 1 1.80729,0.478849 l -1.14339,0.665413 z" />
    <path
       style="fill:#00a189;fill-opacity:1;fill-rule:evenodd;stroke:none;stroke-width:2;stroke-linecap:round;stroke-miterlimit:4;stroke-dasharray:none"
       id="path1178-6-6"
       sodipodi:type="arc"
       sodipodi:cx="120.08965"
       sodipodi:cy="13.110951"
       sodipodi:rx="1.3229166"
       sodipodi:ry="1.3229166"
       sodipodi:start="5.7614017"
       sodipodi:end="5.7561308"
       sodipodi:arc-type="slice"
       d="m 121.23653,12.451574 a 1.3229166,1.3229166 0 0 1 -0.48599,1.805386 1.3229166,1.3229166 0 0 1 -1.80602,-0.483611 1.3229166,1.3229166 0 0 1 0.48123,-1.80666 1.3229166,1.3229166 0 0 1 1.80729,0.478849 l -1.14339,0.665413 z" />
    <path
       style="fill:#6fc7ea;fill-opacity:1;fill-rule:evenodd;stroke:none;stroke-width:2;stroke-linecap:round;stroke-miterlimit:4;stroke-dasharray:none"
       id="path1178-66-2-0-3-8"
       sodipodi:type="arc"
       sodipodi:cx="101.06998"
       sodipodi:cy="29.180292"
       sodipodi:rx="1.3229166"
       sodipodi:ry="1.3229166"
       sodipodi:start="5.7614017"
       sodipodi:end="5.7561308"
       sodipodi:arc-type="slice"
       d="m 102.21685,28.520915 a 1.3229166,1.3229166 0 0 1 -0.48598,1.805385 1.3229166,1.3229166 0 0 1 -1.80603,-0.48361 1.3229166,1.3229166 0 0 1 0.48123,-1.80666 1.3229166,1.3229166 0 0 1 1.80729,0.478849 l -1.14338,0.665413 z" />
    <path
       style="fill:#6fc7ea;fill-opacity:1;fill-rule:evenodd;stroke:none;stroke-width:2;stroke-linecap:round;stroke-miterlimit:4;stroke-dasharray:none"
       id="path1178-66-2-0-6-2"
       sodipodi:type="arc"
       sodipodi:cx="95.386055"
       sodipodi:cy="69.750404"
       sodipodi:rx="1.3229166"
       sodipodi:ry="1.3229166"
       sodipodi:start="5.7614017"
       sodipodi:end="5.7561308"
       sodipodi:arc-type="slice"
       d="m 96.532933,69.091027 a 1.3229166,1.3229166 0 0 1 -0.48599,1.805386 1.3229166,1.3229166 0 0 1 -1.806024,-0.483611 1.3229166,1.3229166 0 0 1 0.48123,-1.80666 1.3229166,1.3229166 0 0 1 1.807293,0.478849 l -1.143387,0.665413 z" />
    <path
       style="fill:#6fc7ea;fill-opacity:1;fill-rule:evenodd;stroke:none;stroke-width:2;stroke-linecap:round;stroke-miterlimit:4;stroke-dasharray:none"
       id="path1178-66-2-0-2-0"
       sodipodi:type="arc"
       sodipodi:cx="125.67651"
       sodipodi:cy="24.470188"
       sodipodi:rx="1.3229166"
       sodipodi:ry="1.3229166"
       sodipodi:start="5.7614017"
       sodipodi:end="5.7561308"
       sodipodi:arc-type="slice"
       d="m 126.82339,23.810811 a 1.3229166,1.3229166 0 0 1 -0.48599,1.805385 1.3229166,1.3229166 0 0 1 -1.80602,-0.48361 1.3229166,1.3229166 0 0 1 0.48123,-1.80666 1.3229166,1.3229166 0 0 1 1.80729,0.478849 l -1.14339,0.665413 z" />
    <path
       style="fill:#6d247a;fill-opacity:1;fill-rule:evenodd;stroke:none;stroke-width:2;stroke-linecap:round;stroke-miterlimit:4;stroke-dasharray:none"
       id="path1178-8-6-6"
       sodipodi:type="arc"
       sodipodi:cx="100.76009"
       sodipodi:cy="48.041073"
       sodipodi:rx="1.3229166"
       sodipodi:ry="1.3229166"
       sodipodi:start="5.7614017"
       sodipodi:end="5.7561308"
       sodipodi:arc-type="slice"
       d="m 101.90697,47.381695 a 1.3229166,1.3229166 0 0 1 -0.48599,1.805386 1.3229166,1.3229166 0 0 1 -1.806023,-0.48361 1.3229166,1.3229166 0 0 1 0.481233,-1.806661 1.3229166,1.3229166 0 0 1 1.80729,0.478849 l -1.14339,0.665414 z" />
    <path
       style="fill:#6d247a;fill-opacity:1;fill-rule:evenodd;stroke:none;stroke-width:2;stroke-linecap:round;stroke-miterlimit:4;stroke-dasharray:none"
       id="path1178-8-8-4"
       sodipodi:type="arc"
       sodipodi:cx="102.22169"
       sodipodi:cy="17.576563"
       sodipodi:rx="1.3229166"
       sodipodi:ry="1.3229166"
       sodipodi:start="5.7614017"
       sodipodi:end="5.7561308"
       sodipodi:arc-type="slice"
       d="m 103.36857,16.917185 a 1.3229166,1.3229166 0 0 1 -0.48599,1.805386 1.3229166,1.3229166 0 0 1 -1.80603,-0.48361 1.3229166,1.3229166 0 0 1 0.48123,-1.806661 1.3229166,1.3229166 0 0 1 1.80729,0.478849 l -1.14338,0.665414 z" />
    <path
       style="fill:#999999;stroke:#999999;stroke-width:0.52916673;stroke-linecap:butt;stroke-linejoin:miter;stroke-opacity:1;stroke-miterlimit:4;stroke-dasharray:1.05833346,0.52916673;stroke-dashoffset:0"
       d="M 79.374999,2.6458333 V 76.729166"
       id="path59385" />
  </g>
</svg>
